<svg width="17" height="12" viewBox="0 0 17 12" fill="none" xmlns="http://www.w3.org/2000/svg">
<path d="M0.716064 11.9629C0.759934 11.9127 0.787945 11.8752 0.821445 11.8431C1.91068 10.7982 3.00186 9.7552 4.08947 8.7088C4.61606 8.2021 5.1342 7.6873 5.65998 7.1797C7.29601 5.6005 8.9342 4.02316 10.5708 2.44475C11.0427 1.9897 11.51 1.53029 11.9848 1.0782C12.2236 0.850754 12.4636 0.622524 12.722 0.416764C13.1726 0.0576539 13.7068 -0.0431263 14.2761 0.0156837C14.7732 0.0670137 15.2179 0.250624 15.6073 0.552954C15.9084 0.786794 16.1563 1.06603 16.3358 1.39722C16.4151 1.54355 16.4996 1.6905 16.5522 1.8465C16.611 2.02059 16.6367 2.20514 16.6754 2.38548C16.6819 2.41574 16.6929 2.46847 16.681 2.47486C16.6359 2.49904 16.5831 2.51308 16.5315 2.52275C16.379 2.55115 16.2236 2.56768 16.073 2.60341C15.7113 2.68905 15.4202 2.88592 15.1787 3.15517C15.0003 3.35407 14.875 3.58324 14.7684 3.82302C14.6387 4.11425 14.5019 4.40365 14.4663 4.72391C14.4581 4.79863 14.4548 4.87431 14.4567 4.94947C14.4713 5.519 14.4207 6.0819 14.2606 6.6319C14.1395 7.0477 13.9645 7.44 13.7406 7.8172C13.4355 8.3316 13.0454 8.7721 12.5894 9.1619C11.8752 9.7725 11.0476 10.1653 10.1097 10.3388C9.64851 10.4241 9.1825 10.4699 8.7125 10.4427C8.0476 10.4042 7.40901 10.2575 6.79972 9.9948C6.59381 9.9061 6.39068 9.8006 6.17456 9.7466C5.37588 9.547 4.652 9.7162 4.01275 10.2123C3.785 10.389 3.57149 10.5831 3.35604 10.774C3.1448 10.9616 2.94326 11.1594 2.73057 11.3452C2.35907 11.6698 1.93237 11.8968 1.43057 11.9623C1.22645 11.989 1.01666 11.976 0.809464 11.9798C0.786644 11.9802 0.763494 11.9717 0.716064 11.9629ZM11.8349 4.89052C11.7876 4.89052 11.7635 4.89349 11.7405 4.89004C11.2724 4.82032 10.8334 5.0638 10.6272 5.4371C10.3206 5.9923 10.6458 6.7316 11.2771 6.8906C11.3451 6.9078 11.3561 6.9304 11.3113 6.9793C11.105 7.2041 10.8831 7.4115 10.6089 7.5602C10.1642 7.8013 9.6867 7.9029 9.1783 7.8729C8.6501 7.8419 8.1826 7.6614 7.7758 7.3367C7.6515 7.2375 7.53611 7.128 7.41241 7.0279C7.3442 6.9728 7.28361 6.9778 7.2164 7.0343C7.15751 7.0837 7.1014 7.1364 7.0448 7.1884C6.87692 7.3425 6.70775 7.4954 6.54217 7.6519C6.3981 7.7881 6.39649 7.9064 6.54006 8.0403C6.65436 8.1467 6.77317 8.249 6.89571 8.3464C7.8456 9.1022 8.92091 9.3658 10.1286 9.108C10.5819 9.0112 11.0137 8.8612 11.4144 8.6336C11.9793 8.3125 12.4269 7.8806 12.7414 7.3232C12.9837 6.8937 13.127 6.4341 13.2087 5.9535C13.3203 5.2988 13.2477 4.66353 12.9965 4.04843C12.8108 3.59401 12.531 3.19418 12.1854 2.83912C11.9893 2.63773 11.8951 2.64319 11.6996 2.82461C11.4958 3.01384 11.2899 3.20105 11.0871 3.39137C10.95 3.52005 10.9483 3.52521 11.0897 3.65189C11.3839 3.91551 11.5931 4.23235 11.7345 4.59226C11.7713 4.68569 11.7991 4.78242 11.8349 4.89052Z" fill="white"/>
</svg>
